#!OML:ASF H:\Not Pregnant\Project 1\Capture day 1\Session 1\non-pregnant.ASF
:FULLY-SPECIFIED
:DEGREES
4348
root 5.07887 12.1217 9.91463 106.662 3.29915 -3.93873
lowerback 33.9359 -3.2503 5.68402
upperback -1.69392 -3.39591 -6.95806
thorax -20.8821 -2.5153 -9.58069
lowerneck 10.3527 -10.9048 -28.6769
upperneck 4.57199 -18.9292 40.9035
head 7.59346 -11.0457 20.3592
rclavicle 5.42434e-014 5.18828e-014
rhumerus 92.2824 -20.6339 -67.9599
rradius 28.4805
rwrist 27.7272
rhand -44.1105 -8.33192
rfingers 7.12502
rthumb -16.9276 322.386
lclavicle 5.42434e-014 5.18828e-014
lhumerus 70.3205 26.0564 10.1494
lradius 41.4004
lwrist 38.6974
lhand -46.862 -22.2253
lfingers 7.12502
lthumb -19.5746 6.80928
rfemur -83.1025 2.00325 39.7254
rtibia 35.4803
rfoot -35.8624 36.8706
rtoes 16.8908
lfemur -89.013 0.11924 -1.53646
ltibia 43.8096
lfoot -44.8842 26.0954
ltoes -37.731
4349
root 5.09646 12.1254 9.88909 106.865 3.32992 -3.99882
lowerback 34.0469 -3.29694 5.77108
upperback -1.67773 -3.41779 -6.96437
thorax -20.9245 -2.53459 -9.62547
lowerneck 10.357 -10.9334 -28.754
upperneck 4.67099 -18.9743 40.6894
head 7.6059 -11.047 20.2201
rclavicle -3.3048e-014 -6.19338e-014
rhumerus 92.8047 -20.9174 -68.0876
rradius 28.4549
rwrist 27.6743
rhand -43.879 -8.39441
rfingers 7.12502
rthumb -16.7047 322.304
lclavicle -3.3048e-014 -6.19338e-014
lhumerus 70.2695 26.5996 9.6703
lradius 41.2956
lwrist 38.9768
lhand -46.8994 -21.9157
lfingers 7.12502
lthumb -19.6106 7.11523
rfemur -83.4421 2.15144 39.7193
rtibia 35.5718
rfoot -36.2343 36.4397
rtoes 16.2324
lfemur -89.3325 0.261292 -1.5449
ltibia 43.8105
lfoot -44.9185 26.0494
ltoes -37.7211
4350
root 5.11412 12.129 9.86425 107.046 3.34435 -4.06209
lowerback 34.1869 -3.32763 5.83288
upperback -1.66199 -3.42741 -6.96861
thorax -20.976 -2.54617 -9.65928
lowerneck 10.4381 -10.9799 -28.585
upperneck 4.66207 -19.0326 40.7298
head 7.47341 -11.014 19.672
rclavicle -4.56459e-014 -6.96989e-014
rhumerus 93.297 -21.2307 -68.1597
rradius 28.4355
rwrist 27.5889
rhand -43.6305 -8.46736
rfingers 7.12502
rthumb -16.4655 322.211
lclavicle -4.56459e-014 -6.96989e-014
lhumerus 70.2303 27.1253 9.23546
lradius 41.2157
lwrist 39.2738
lhand -46.9385 -21.6153
lfingers 7.12502
lthumb -19.6481 7.41178
rfemur -83.7646 2.28631 39.6953
rtibia 35.6725
rfoot -36.6241 35.9969
rtoes 15.5454
lfemur -89.6208 0.391514 -1.57141
ltibia 43.8015
lfoot -44.972 25.9775
ltoes -37.6892
4351
root 5.13163 12.1328 9.84075 107.196 3.34082 -4.12972
lowerback 34.3659 -3.34161 5.86504
upperback -1.64515 -3.4256 -6.97261
thorax -21.0394 -2.54999 -9.68132
lowerneck 10.4488 -11.0438 -28.651
upperneck 4.77375 -19.1283 40.5091
head 7.51196 -11.0423 19.5293
rclavicle 3.27746e-014 -1.89715e-014
rhumerus 93.7595 -21.5735 -68.1872
rradius 28.4216
rwrist 27.4885
rhand -43.3819 -8.55706
rfingers 7.12502
rthumb -16.2261 322.102
lclavicle 3.27746e-014 -1.89715e-014
lhumerus 70.2165 27.6324 8.86087
lradius 41.1578
lwrist 39.5804
lhand -46.971 -21.3275
lfingers 7.12502
lthumb -19.6794 7.69636
rfemur -84.0585 2.40463 39.6518
rtibia 35.7772
rfoot -36.9976 35.5809
rtoes 14.9115
lfemur -89.8633 0.506542 -1.61855
ltibia 43.7774
lfoot -45.0373 25.9028
ltoes -37.6482
4352
root 5.14925 12.1364 9.81774 107.349 3.32331 -4.19347
lowerback 34.5346 -3.34293 5.8838
upperback -1.62756 -3.41334 -6.9777
thorax -21.0936 -2.54795 -9.70235
lowerneck 10.4614 -11.0765 -28.7539
upperneck 4.90092 -19.1906 40.3467
head 7.55764 -11.0597 19.4467
rclavicle -3.22528e-014 6.28532e-014
rhumerus 94.1945 -21.9498 -68.1737
rradius 28.4125
rwrist 27.378
rhand -43.1308 -8.66351
rfingers 7.12502
rthumb -15.9843 321.976
lclavicle -3.22528e-014 6.28532e-014
lhumerus 70.2368 28.1262 8.55079
lradius 41.1156
lwrist 39.8911
lhand -46.9942 -21.0616
lfingers 7.12502
lthumb -19.7017 7.96003
rfemur -84.3599 2.51093 39.5936
rtibia 35.8829
rfoot -37.3525 35.1899
rtoes 14.3267
lfemur -90.1005 0.609582 -1.68
ltibia 43.7406
lfoot -45.1056 25.8321
ltoes -37.6023
4353
root 5.16689 12.1395 9.7951 107.506 3.31438 -4.24772
lowerback 34.6874 -3.33912 5.91093
upperback -1.60646 -3.3905 -6.9792
thorax -21.1329 -2.54167 -9.72912
lowerneck 10.4687 -11.0874 -28.8565
upperneck 5.029 -19.222 40.2108
head 7.5965 -11.0633 19.3897
rclavicle 1.31695e-014 -7.72775e-015
rhumerus 94.6119 -22.3559 -68.1291
rradius 28.4071
rwrist 27.2567
rhand -42.8782 -8.78964
rfingers 7.12502
rthumb -15.7411 321.831
lclavicle 1.31695e-014 -7.72775e-015
lhumerus 70.2901 28.6176 8.29501
lradius 41.079
lwrist 40.2048
lhand -47.0076 -20.818
lfingers 7.12502
lthumb -19.7146 8.20224
rfemur -84.6652 2.60881 39.5446
rtibia 35.9866
rfoot -37.6916 34.8208
rtoes 13.7795
lfemur -90.3363 0.705552 -1.73189
ltibia 43.6927
lfoot -45.163 25.7705
ltoes -37.5672
4354
root 5.18459 12.142 9.77261 107.675 3.29936 -4.29441
lowerback 34.8163 -3.33179 5.93781
upperback -1.5839 -3.3646 -6.98327
thorax -21.1587 -2.53395 -9.7605
lowerneck 10.5071 -11.0601 -28.9678
upperneck 5.12933 -19.2014 40.1058
head 7.60483 -11.0467 19.3683
rclavicle -1.50082e-014 -2.51214e-014
rhumerus 95.0086 -22.7877 -68.0544
rradius 28.4025
rwrist 27.1228
rhand -42.6267 -8.92831
rfingers 7.12502
rthumb -15.4988 321.673
lclavicle -1.50082e-014 -2.51214e-014
lhumerus 70.3727 29.1056 8.07622
lradius 41.0393
lwrist 40.5313
lhand -47.0124 -20.6068
lfingers 7.12502
lthumb -19.7192 8.41302
rfemur -84.9873 2.69716 39.4893
rtibia 36.0888
rfoot -38.0119 34.4875
rtoes 13.2856
lfemur -90.5834 0.790402 -1.78819
ltibia 43.6423
lfoot -45.2239 25.6995
ltoes -37.5157
4355
root 5.20242 12.1438 9.75014 107.861 3.29826 -4.32731
lowerback 34.9168 -3.33026 5.98672
upperback -1.5604 -3.3377 -6.98561
thorax -21.1709 -2.52779 -9.80301
lowerneck 10.5482 -11.0086 -29.0848
upperneck 5.22526 -19.1477 40.0193
head 7.60105 -11.0154 19.3689
rclavicle -1.49585e-014 -2.04748e-014
rhumerus 95.3925 -23.2352 -67.9618
rradius 28.3984
rwrist 26.98
rhand -42.3739 -9.0885
rfingers 7.12502
rthumb -15.2553 321.494
lclavicle -1.49585e-014 -2.04748e-014
lhumerus 70.4699 29.5969 7.87009
lradius 40.9908
lwrist 40.8696
lhand -47.0117 -20.413
lfingers 7.12502
lthumb -19.7186 8.60686
rfemur -85.3267 2.77817 39.4486
rtibia 36.1863
rfoot -38.3035 34.2036
rtoes 12.8778
lfemur -90.8526 0.869205 -1.82833
ltibia 43.5953
lfoot -45.288 25.6276
ltoes -37.4469
4356
root 5.2201 12.1453 9.72825 108.045 3.28526 -4.35718
lowerback 35.015 -3.33194 6.02804
upperback -1.5346 -3.31928 -6.99353
thorax -21.1812 -2.52439 -9.84351
lowerneck 10.5835 -10.9454 -29.2047
upperneck 5.32392 -19.0789 39.9493
head 7.59636 -10.9776 19.3848
rclavicle 2.4699e-014 4.61677e-014
rhumerus 95.7639 -23.6918 -67.8542
rradius 28.3923
rwrist 26.8255
rhand -42.1204 -9.26228
rfingers 7.12502
rthumb -15.0111 321.302
lclavicle 2.4699e-014 4.61677e-014
lhumerus 70.5703 30.0882 7.65766
lradius 40.9275
lwrist 41.216
lhand -47.0162 -20.2274
lfingers 7.12502
lthumb -19.7229 8.79201
rfemur -85.6614 2.84508 39.3943
rtibia 36.277
rfoot -38.5632 33.9763
rtoes 12.5629
lfemur -91.1235 0.933709 -1.87979
ltibia 43.559
lfoot -45.3624 25.5531
ltoes -37.3503
